<svg version="1" xmlns="http://www.w3.org/2000/svg" width="933.333" height="933.333" viewBox="0 0 700.000000 700.000000"><path d="M25.3 1.4C15.1 4.6 7.7 11.1 3.1 21L.5 26.5v647l2.6 5.6c3.7 7.9 9 13.3 16.7 17.1l6.7 3.3h647l6.7-3.3c7.7-3.8 13-9.2 16.7-17.1l2.6-5.6v-647l-3.3-6.7c-3.8-7.7-9.2-13-17.1-16.7L673.5.5l-322-.2C87.2.2 28.7.4 25.3 1.4zm154.4 243.3c26.3 20.2 57 43.8 68.3 52.5 11.3 8.6 20.7 15.7 21 15.7.3 0 31.3-23.6 69-52.4l68.5-52.5 97 .2 97 .3 8.7 3.1c32.2 11.5 53.5 41.3 55.5 77.4 1.3 24.5-6.9 47.3-23.1 64.7-7.9 8.5-15.6 14.1-26 18.8-13.9 6.4-15.4 6.5-78 6.5H481l.1 48.7v48.8l52.4 40c28.8 22 52.4 40.3 52.5 40.7 0 .5-21 .8-46.7.8h-46.8L381 472.5c-61.3-47-111.7-85.5-112-85.5-.3 0-16.7 12.5-36.5 27.7s-50.6 38.8-68.4 52.5L131.8 492H83.7c-27 0-47.7-.4-47.2-.9.6-.4 39.5-30.2 86.5-66.2 102.1-77.9 97-74 97-75 0-.5-176.7-136.5-183.4-141.1-.6-.4 20.6-.8 47.1-.8H132l47.7 36.7z"/><path d="M369.6 309.2c-28.8 22.2-52.5 40.5-52.5 40.8 0 .3 6.6 5.4 14.5 11.5 8 6 31.9 24.4 53.2 40.7l38.7 29.7.3-45.7.3-45.7 14.6-11 14.6-11 68.1-.5c67.4-.5 68.1-.5 72.1-2.7 10.9-5.8 15.8-17.8 12.3-29.7-1.6-5.5-9.9-13.8-15.4-15.4-3.1-.9-24.7-1.2-86.2-1.2h-82.1l-52.5 40.2z"/></svg>